<svg width="41" height="41" viewBox="0 0 41 41" fill="none" xmlns="http://www.w3.org/2000/svg">
<circle cx="20.5" cy="20.5" r="20.5" fill="#3CC8C8"/>
<path d="M20.2576 9.17406C20.7839 8.91095 21.4855 9.52486 21.1347 10.0511C20.9593 10.4896 20.3453 10.5773 19.9945 10.3142C19.6437 9.96337 19.8191 9.34946 20.2576 9.17406ZM14.4693 9.78797C14.8201 9.61257 15.1709 9.96337 15.1709 10.3142C15.1709 10.665 14.7324 11.0158 14.3816 10.8404C13.9431 10.665 13.9431 9.87567 14.4693 9.78797ZM26.3091 10.8404C25.7829 10.7527 25.6952 9.96337 26.2214 9.78797C26.5722 9.61257 26.923 9.96337 27.0107 10.3142C26.923 10.5773 26.6599 10.9281 26.3091 10.8404ZM15.7848 12.2436C16.3111 11.8928 17.1004 12.419 17.0127 13.0329C17.0127 13.6469 16.1356 14.0854 15.6971 13.6469C15.1709 13.2961 15.2586 12.5067 15.7848 12.2436ZM24.1165 12.5944C24.3796 11.9805 25.3444 11.9805 25.6075 12.5944C25.8706 13.0329 25.5198 13.6469 25.0813 13.8223C24.3796 13.91 23.7657 13.2084 24.1165 12.5944ZM19.556 13.7346C19.556 13.2084 20.0822 12.7698 20.5208 12.7698C20.8716 12.8575 21.2224 12.9452 21.3978 13.2961C21.6609 13.7346 21.3978 14.4362 20.9593 14.6116C20.6962 14.6993 20.4331 14.6993 20.2576 14.6993C19.8191 14.6116 19.4683 14.1731 19.556 13.7346ZM10.9612 14.5239C11.4874 14.2608 12.1014 14.787 11.9259 15.3132C11.8382 15.7517 11.2243 16.0148 10.8735 15.664C10.435 15.4009 10.5227 14.787 10.9612 14.5239ZM29.3787 14.5239C29.8172 14.1731 30.5188 14.6116 30.4311 15.1378C30.4311 15.664 29.8172 16.0148 29.4664 15.7517C29.0279 15.4886 28.9402 14.787 29.3787 14.5239ZM21.924 15.4886C22.6256 15.2255 23.4149 15.5763 23.8534 16.1902C24.3796 16.9795 24.1165 18.1197 23.3272 18.5582C22.4502 19.0844 21.2224 18.6459 20.9593 17.6812C20.5208 16.8041 21.047 15.7517 21.924 15.4886ZM17.802 15.5763C18.5913 15.2255 19.6437 15.4886 19.9945 16.2779C20.4331 17.0672 20.0822 18.1197 19.2929 18.5582C18.5036 18.9967 17.3635 18.6459 17.0127 17.8566C16.6619 17.0672 17.0127 16.0148 17.802 15.5763ZM13.7677 16.9795C13.8554 16.4533 14.2939 16.1902 14.7324 16.1025C15.2586 16.1902 15.6094 16.541 15.6971 17.0672C15.6971 17.5935 15.2586 18.1197 14.7324 18.1197C14.1185 18.2074 13.5923 17.5935 13.7677 16.9795ZM25.8706 16.2779C26.4845 15.9271 27.3615 16.4533 27.2738 17.1549C27.2738 17.9443 26.3968 18.3828 25.7829 18.032C25.169 17.5935 25.169 16.541 25.8706 16.2779ZM16.1356 18.909C16.8373 18.7336 17.7143 19.0844 18.0651 19.6983C18.4159 20.3999 18.3282 21.2769 17.7143 21.8032C16.925 22.5048 15.5217 22.2417 15.0832 21.2769C14.6447 20.3122 15.1709 19.0844 16.1356 18.909ZM23.9411 18.909C24.6428 18.7336 25.4321 18.9967 25.8706 19.6106C26.3968 20.3122 26.1337 21.4523 25.4321 21.8909C24.6428 22.4171 23.5026 22.154 23.0641 21.2769C22.4502 20.3999 22.9764 19.1721 23.9411 18.909ZM11.5751 19.6983C12.1891 19.4352 12.8907 20.1368 12.6276 20.7507C12.4522 21.2769 11.6628 21.54 11.312 21.1015C10.7858 20.7507 10.9612 19.8737 11.5751 19.6983ZM28.3262 20.5753C28.3262 20.0491 28.677 19.6106 29.2033 19.6106C29.6418 19.6983 30.0803 20.0491 29.9926 20.4876C29.9926 21.1015 29.291 21.54 28.7648 21.1892C28.5893 21.1015 28.4139 20.8384 28.3262 20.5753ZM8.50557 20.0491C8.85638 19.8737 9.38259 20.2245 9.29489 20.663C9.29489 21.1015 8.59327 21.2769 8.33016 20.9261C8.06706 20.5753 8.24246 20.1368 8.50557 20.0491ZM32.0097 20.0491C32.2728 19.8737 32.7113 19.9614 32.799 20.3122C32.9744 20.663 32.6236 21.1015 32.2728 21.0138C31.7466 21.0138 31.5712 20.2245 32.0097 20.0491ZM18.2405 22.2417C19.2052 21.9786 20.2576 22.7679 20.2576 23.8203C20.3454 24.8727 19.2929 25.7497 18.2405 25.4866C17.4512 25.3989 16.8373 24.6096 16.925 23.8203C16.925 23.1187 17.4512 22.4171 18.2405 22.2417ZM22.0994 22.2417C23.0641 21.9786 24.2042 22.7679 24.2042 23.8203C24.2919 24.785 23.2395 25.662 22.2748 25.4866C21.3101 25.3989 20.6962 24.3465 20.9593 23.4695C20.9593 22.8556 21.4855 22.4171 22.0994 22.2417ZM14.557 22.8556C15.2586 22.7679 15.8725 23.4695 15.6094 24.1711C15.434 24.8727 14.3816 25.0481 13.9431 24.5219C13.5046 23.908 13.8554 22.9433 14.557 22.8556ZM25.9583 22.9433C26.5722 22.6802 27.3615 23.2064 27.2738 23.908C27.2738 24.6096 26.3968 25.1358 25.7829 24.6973C25.0813 24.2588 25.2567 23.1187 25.9583 22.9433ZM29.2033 26.1006C28.9402 25.662 29.3787 25.0481 29.9049 25.1358C30.168 25.1358 30.3434 25.3112 30.5188 25.4866C30.5188 25.7497 30.6065 26.1006 30.3434 26.276C29.9926 26.6268 29.291 26.5391 29.2033 26.1006ZM10.9612 25.2235C11.3997 24.8727 12.1014 25.3989 12.0137 25.9252C11.9259 26.3637 11.312 26.7145 10.9612 26.4514C10.435 26.1883 10.5227 25.4866 10.9612 25.2235ZM20.0822 26.276C20.6962 26.0129 21.4855 26.5391 21.3978 27.2407C21.4855 27.9423 20.5208 28.4685 19.9068 28.03C19.2929 27.5915 19.3806 26.5391 20.0822 26.276ZM15.8725 27.2407C16.3988 26.9776 17.1004 27.4161 17.0127 28.03C17.0127 28.4685 16.5742 28.907 16.1356 28.8193C15.7848 28.8193 15.5217 28.4685 15.3463 28.1177C15.3463 27.7669 15.5217 27.4161 15.8725 27.2407ZM24.4673 27.2407C24.9936 26.8899 25.7829 27.4161 25.6952 28.03C25.6952 28.6439 24.8182 29.0824 24.3796 28.6439C23.8534 28.2931 23.9411 27.5038 24.4673 27.2407ZM25.9583 31.0119C25.6952 30.6611 25.9583 30.2226 26.3968 30.1349C26.7476 30.2226 27.0107 30.398 27.0107 30.7488C26.923 31.275 26.2214 31.3627 25.9583 31.0119ZM14.1185 30.6611C14.2062 30.398 14.4693 30.1349 14.8201 30.1349C15.3463 30.1349 15.434 30.9242 14.9955 31.0996C14.557 31.4504 14.1185 31.0996 14.1185 30.6611ZM19.8191 31.0119C19.9068 30.5734 20.4331 30.398 20.7839 30.5734C21.047 30.6611 21.047 30.9242 21.1347 31.1873L21.047 31.5381C20.9593 31.7135 20.7839 31.8889 20.5208 31.8889C20.0822 31.8889 19.6437 31.4504 19.8191 31.0119Z" fill="white"/>
</svg>
