<svg width="41" height="41" viewBox="0 0 41 41" fill="none" xmlns="http://www.w3.org/2000/svg">
    <path d="M20.5 40.8948C9.27497 40.8948 0.175266 31.7638 0.175266 20.5C0.175266 9.2362 9.27497 0.105103 20.5 0.105103C31.7251 0.105103 40.8248 9.2362 40.8248 20.5C40.8248 31.7638 31.7251 40.8948 20.5 40.8948Z" fill="#F0B90B"/>
    <path d="M28.0799 20.5L31.1895 23.6421L34.3208 20.5L31.1895 17.3579L28.0799 20.5ZM20.5 12.894L15.1444 18.268L12.0131 15.1259L17.3687 9.77355L20.5 6.63147L23.6313 9.77355L28.9653 15.1259L25.834 18.268L20.5 12.894ZM9.8104 17.3579L12.9201 20.5L9.78881 23.6421L6.67911 20.5L9.8104 17.3579ZM20.5 28.106L25.8556 22.7319L28.9653 25.874L23.6097 31.2481L20.5 34.3685L17.3687 31.2264L12.0131 25.8524L15.1444 22.7319L20.5 28.106ZM20.5 23.6421L17.3687 20.5L20.5 17.3579L23.6313 20.5L20.5 23.6421Z" fill="white"/>
</svg>
