<svg width="41" height="41" viewBox="0 0 41 41" fill="none" xmlns="http://www.w3.org/2000/svg">
<circle cx="20.5" cy="20.5" r="20.5" fill="#DF912F"/>
<path d="M21.0498 14.0625L19.9942 18.549C21.3137 18.8129 25.0964 20.1324 25.8002 17.6693C26.4159 14.9422 22.5453 14.3264 21.0498 14.0625ZM19.4664 20.7482L18.3228 25.5865C19.9062 25.9384 24.4806 27.4339 25.1844 24.7068C25.8881 21.8038 21.0498 21.188 19.4664 20.7482ZM30.2866 17.5813C29.9347 19.5166 28.8791 20.4843 27.3836 20.7482C29.3189 21.8038 30.2866 23.3873 29.3189 26.1143C28.1753 29.5451 25.3603 29.809 21.5776 29.1053L20.6979 32.8L18.4987 32.2722L19.3784 28.5775C18.8506 28.4895 18.3228 28.3136 17.707 28.2256L16.8273 31.9203L14.628 31.3925L15.5077 27.6978L13.9243 27.3459L10.9333 26.6421L11.989 24.179L13.5724 24.5309C14.1882 24.6188 14.4521 24.267 14.628 24.0031L16.0356 18.1971H16.2995C16.2115 18.1091 16.0356 18.1091 16.0356 18.1091L17.0912 13.8866C17.0912 13.3588 17.0032 12.831 16.0356 12.5671C16.1235 12.5671 14.4521 12.2152 14.4521 12.2152L14.9799 9.84L17.9709 10.6317L19.3784 10.9836L20.434 7.28889L22.6333 7.81671L21.7536 11.3355C22.3693 11.4234 23.0731 11.5994 23.6009 11.6874L24.4806 8.16858L26.6798 8.6964L25.8002 12.3911C28.5272 13.5347 30.6385 14.9422 30.2866 17.5813Z" fill="white"/>
</svg>
