<?xml version="1.0" encoding="UTF-8"?>
<svg id="_Слой_1" data-name="Слой 1" xmlns="http://www.w3.org/2000/svg" viewBox="0 0 41 41">
  <defs>
    <style>
      .cls-1 {
        fill: #df912f;
      }

      .cls-1, .cls-2, .cls-3 {
        stroke-width: 0px;
      }

      .cls-2 {
        fill: #f0b90b;
      }

      .cls-3 {
        fill: #fff;
      }
    </style>
  </defs>
  <circle class="cls-1" cx="20.5" cy="20.5" r="20.5"/>
  <path class="cls-3" d="M21.05,14.06l-1.06,4.49c1.32.26,5.1,1.58,5.81-.88.62-2.73-3.25-3.34-4.75-3.61ZM19.47,20.75l-1.14,4.84c1.58.35,6.16,1.85,6.86-.88.7-2.9-4.13-3.52-5.72-3.96ZM30.29,17.58c-.35,1.94-1.41,2.9-2.9,3.17,1.94,1.06,2.9,2.64,1.94,5.37-1.14,3.43-3.96,3.69-7.74,2.99l-.88,3.69-2.2-.53.88-3.69c-.53-.09-1.06-.26-1.67-.35l-.88,3.69-2.2-.53.88-3.69-1.58-.35-2.99-.7,1.06-2.46,1.58.35c.62.09.88-.26,1.06-.53l1.41-5.81h.26c-.09-.09-.26-.09-.26-.09l1.06-4.22c0-.53-.09-1.06-1.06-1.32.09,0-1.58-.35-1.58-.35l.53-2.38,2.99.79,1.41.35,1.06-3.69,2.2.53-.88,3.52c.62.09,1.32.26,1.85.35l.88-3.52,2.2.53-.88,3.69c2.73,1.14,4.84,2.55,4.49,5.19Z"/>
  <path class="cls-2" d="M30.84,41c-5.61,0-10.16-4.57-10.16-10.2s4.55-10.2,10.16-10.2,10.16,4.57,10.16,10.2-4.55,10.2-10.16,10.2Z"/>
  <path class="cls-3" d="M34.63,30.8l1.55,1.57,1.57-1.57-1.57-1.57-1.55,1.57ZM30.84,27l-2.68,2.69-1.57-1.57,2.68-2.68,1.57-1.57,1.57,1.57,2.67,2.68-1.57,1.57-2.67-2.69ZM25.49,29.23l1.55,1.57-1.57,1.57-1.55-1.57,1.57-1.57ZM30.84,34.61l2.68-2.69,1.55,1.57-2.68,2.69-1.55,1.56-1.57-1.57-2.68-2.69,1.57-1.56,2.68,2.69ZM30.84,32.37l-1.57-1.57,1.57-1.57,1.57,1.57-1.57,1.57Z"/>
</svg>