<svg width="41" height="41" viewBox="0 0 41 41" fill="none" xmlns="http://www.w3.org/2000/svg">
<circle cx="20.5" cy="20.5" r="20.5" fill="#2AB013"/>
<path d="M17.6493 15.0036L19.4026 19.2116C20.6299 18.6856 24.4873 17.5459 23.6106 15.0912C22.4709 12.5489 18.9643 14.3022 17.6493 15.0036ZM20.1916 21.3156L22.1203 25.8743C23.6106 25.2606 28.1693 23.7703 27.1173 21.1403C26.0653 18.4226 21.7696 20.7896 20.1916 21.3156ZM27.1173 12.4612C27.994 14.2146 27.6433 15.6173 26.5913 16.6693C28.783 16.4063 30.4487 17.1076 31.3253 19.9129C32.3773 23.3319 30.2733 25.173 26.7666 26.8386L28.1693 30.3453L26.0653 31.222L24.6626 27.7153C24.2243 27.9783 23.6983 28.1536 23.0846 28.4166L24.4873 31.9233L22.3833 32.8L20.9806 29.2933L19.4903 29.907L16.6849 31.0467L16.0713 28.4166L17.5616 27.803C18.0876 27.54 18.0876 27.1017 18.0876 26.751L15.8082 21.2279L15.9836 21.0526C15.8959 21.0526 15.7206 21.1403 15.7206 21.1403L14.1426 17.1076C13.7919 16.6693 13.4412 16.3186 12.4769 16.6693C12.5646 16.5816 10.9866 17.2829 10.9866 17.2829L10.0222 15.0912L12.9152 13.9516L14.2303 13.4256L12.9152 9.83123L15.0192 8.95456L16.3343 12.2859C16.8603 12.0229 17.5616 11.7599 17.9999 11.4969L16.6849 8.16556L18.7889 7.28889L20.1916 10.7956C23.3476 10.1819 25.89 10.0942 27.1173 12.4612Z" fill="white"/>
</svg>
