<?xml version="1.0" encoding="UTF-8"?><svg id="_Слой_1" xmlns="http://www.w3.org/2000/svg" viewBox="0 0 41 41"><defs><style>.cls-1{fill:#fff;}.cls-2{fill:#808182;}.cls-3{fill:#53ae94;}.cls-4{fill:#323232;}.cls-5{fill:#252626;}</style></defs><path class="cls-3" d="m20.5,0c11.32,0,20.5,9.18,20.5,20.5s-9.18,20.5-20.5,20.5S0,31.82,0,20.5,9.18,0,20.5,0"/><path class="cls-1" d="m23.03,17.77v-3.05h6.97v-4.65H11.01v4.65h6.97v3.05c-5.67.26-9.93,1.38-9.93,2.73s4.26,2.47,9.93,2.73v9.77h5.04v-9.77c5.66-.26,9.91-1.38,9.91-2.73s-4.25-2.47-9.91-2.73m0,4.63h0c-.14,0-.87.05-2.5.05-1.3,0-2.22-.04-2.54-.05h0c-5.01-.22-8.75-1.09-8.75-2.13s3.74-1.91,8.75-2.14v3.41c.33.02,1.27.08,2.56.08,1.56,0,2.34-.06,2.48-.08v-3.41c5,.22,8.73,1.1,8.73,2.14s-3.73,1.91-8.73,2.14"/><circle class="cls-1" cx="34.11" cy="34.11" r="6.89"/><path class="cls-2" d="m31.51,34.1l2.69-1.11v-3.32l-2.69,4.43Z"/><path class="cls-4" d="m34.2,35.52v-2.53l-2.69,1.11,2.69,1.42Zm2.5-1.49l-2.5-4.37v3.32l2.5,1.04Z"/><path class="cls-5" d="m34.2,35.52l2.5-1.49-2.5-1.04v2.53Z"/><path class="cls-2" d="m34.2,36.25v1.99l-2.59-3.57,2.59,1.58Z"/><path class="cls-4" d="m36.7,34.73l-2.5,3.51v-1.99l2.5-1.52Z"/></svg>