<?xml version="1.0" encoding="UTF-8"?>
<svg id="_Слой_1" data-name="Слой 1" xmlns="http://www.w3.org/2000/svg" width="41" height="41" viewBox="0 0 41 41">
  <defs>
    <style>
      .cls-1 {
        fill: #323232;
      }

      .cls-1, .cls-2, .cls-3, .cls-4, .cls-5 {
        stroke-width: 0px;
      }

      .cls-2 {
        fill: #f0b90b;
      }

      .cls-3 {
        fill: #fff;
      }

      .cls-4 {
        fill: #808182;
      }

      .cls-5 {
        fill: #252626;
      }
    </style>
  </defs>
  <circle class="cls-3" cx="20.5" cy="20.5" r="20.5"/>
  <path class="cls-4" d="M12.76,20.47l8-3.29V7.29l-8,13.18Z"/>
  <path class="cls-1" d="M20.76,24.7v-7.53l-8,3.29,8,4.24ZM28.19,20.28l-7.44-12.99v9.88l7.44,3.11Z"/>
  <path class="cls-5" d="M20.76,24.7l7.44-4.42-7.44-3.11v7.53Z"/>
  <path class="cls-4" d="M20.76,26.87v5.93l-7.72-10.64,7.72,4.71Z"/>
  <path class="cls-1" d="M28.19,22.35l-7.44,10.45v-5.93l7.44-4.52Z"/>
  <path class="cls-2" d="M32.62,41c-4.63,0-8.38-3.77-8.38-8.41s3.75-8.41,8.38-8.41,8.38,3.77,8.38,8.41-3.75,8.41-8.38,8.41Z"/>
  <path class="cls-3" d="M35.74,32.59l1.28,1.3,1.29-1.3-1.29-1.3-1.28,1.3ZM32.62,29.45l-2.21,2.22-1.29-1.3,2.21-2.21,1.29-1.3,1.29,1.3,2.2,2.21-1.29,1.3-2.2-2.22ZM28.21,31.29l1.28,1.3-1.29,1.3-1.28-1.3,1.29-1.3ZM32.62,35.72l2.21-2.22,1.28,1.3-2.21,2.22-1.28,1.29-1.29-1.3-2.21-2.22,1.29-1.29,2.21,2.22ZM32.62,33.88l-1.29-1.3,1.29-1.3,1.29,1.3-1.29,1.3Z"/>
</svg>