<?xml version="1.0" encoding="UTF-8"?>
<svg id="_Слой_1" data-name="Слой 1" xmlns="http://www.w3.org/2000/svg" width="18" height="18" xmlns:xlink="http://www.w3.org/1999/xlink" viewBox="0 0 18 18">
  <defs>
    <style>
      .cls-1 {
        fill: url(#_Безымянный_градиент);
      }

      .cls-1, .cls-2, .cls-3, .cls-4, .cls-5 {
        stroke-width: 0px;
      }

      .cls-2 {
        fill: #323232;
      }

      .cls-3 {
        fill: #fff;
      }

      .cls-4 {
        fill: #808182;
      }

      .cls-5 {
        fill: #252626;
      }
    </style>
    <linearGradient id="_Безымянный_градиент" data-name="Безымянный градиент" x1="2.64" y1="17.36" x2="15.36" y2="4.64" gradientTransform="translate(0 20) scale(1 -1)" gradientUnits="userSpaceOnUse">
      <stop offset="0" stop-color="#8f34c2"/>
      <stop offset="1" stop-color="#7442db"/>
    </linearGradient>
  </defs>
  <path class="cls-1" d="M9,0h0c4.97,0,9,4.03,9,9h0c0,4.97-4.03,9-9,9h0C4.03,18,0,13.97,0,9h0C0,4.03,4.03,0,9,0Z"/>
  <path class="cls-3" d="M5.74,7.05c.23-.12.52-.12.75,0l5.05,2.87c.22.12.5.12.75,0l1.16-.76c.22-.13.55-.36.55-.62v-2.08c0-.26-.13-.49-.36-.61l-1.34-.75c-.23-.12-.52-.12-.75,0l-1.2.74c-.21.13-.34.35-.34.6v1.28l-1-.65v-.97c0-.25.07-.48.3-.61l2.22-1.4c.23-.12.52-.12.75,0l2.35,1.4c.25.13.38.36.38.61v2.82c0,.25-.13.48-.38.6l-2.33,1.4c-.23.12-.52.12-.75,0l-5.06-2.82c-.23-.12-.52-.12-.75,0l-1.15.74c-.22.12-.59.36-.59.6v2.1c0,.25.14.48.39.6l1.35.77c.22.12.5.12.75,0l1.13-.76c.23-.11.37-.35.38-.6v-1.28l1,.65v.98c0,.25-.04.48-.28.6l-2.25,1.4c-.23.12-.52.12-.75,0l-2.34-1.4c-.22-.12-.37-.35-.38-.6v-2.82c0-.25.13-.48.38-.6,0,0,2.36-1.43,2.36-1.43Z"/>
  <circle class="cls-3" cx="13.66" cy="13.66" r="4.34"/>
  <path class="cls-4" d="M12.03,13.66l1.69-.7v-2.09l-1.69,2.79Z"/>
  <path class="cls-2" d="M13.72,14.55v-1.59l-1.69.7,1.69.9ZM15.29,13.62l-1.57-2.75v2.09l1.57.66Z"/>
  <path class="cls-5" d="M13.72,14.55l1.57-.94-1.57-.66v1.59Z"/>
  <path class="cls-4" d="M13.72,15.01v1.25l-1.63-2.25,1.63,1Z"/>
  <path class="cls-2" d="M15.29,14.06l-1.57,2.21v-1.25l1.57-.96Z"/>
</svg>