<svg width="41" height="41" viewBox="0 0 41 41" fill="none" xmlns="http://www.w3.org/2000/svg">
<circle cx="20.5" cy="20.5" r="20.5" fill="#0695EC"/>
<path d="M26.5027 32.5454C21.2626 34.0417 18.1573 28.6174 20.7774 24.7829C21.5537 23.193 19.4188 21.3225 17.381 22.7254C14.5669 28.1497 7.28888 25.9987 7.28888 21.3225C7.58 15.6176 14.5669 14.2147 17.1869 19.1715C18.9336 20.8549 21.4567 18.9844 20.5833 17.0204C17.381 11.5025 23.4945 7.66808 26.9879 9.63207C31.8399 12.0637 30.3843 19.078 24.1738 19.078C22.136 19.3585 21.9419 22.6319 24.1738 22.9124C31.2577 22.9124 31.937 30.5814 26.5027 32.5454Z" fill="white"/>
</svg>
