<?xml version="1.0" encoding="UTF-8"?>
<svg id="_Слой_1" data-name="Слой 1" xmlns="http://www.w3.org/2000/svg" width="18" height="18" xmlns:xlink="http://www.w3.org/1999/xlink" viewBox="0 0 18 18">
  <defs>
    <style>
      .cls-1 {
        fill: url(#_Безымянный_градиент_3-2);
      }

      .cls-1, .cls-2, .cls-3, .cls-4, .cls-5, .cls-6 {
        stroke-width: 0px;
      }

      .cls-2 {
        fill: url(#_Безымянный_градиент_3);
      }

      .cls-3 {
        fill: url(#_Безымянный_градиент_3-3);
      }

      .cls-5 {
        fill: #f0b90b;
      }

      .cls-6 {
        fill: #fff;
      }
    </style>
    <linearGradient id="_Безымянный_градиент_3" data-name="Безымянный градиент 3" x1="15.91" y1="-235.97" x2="9.36" y2="-248.52" gradientTransform="translate(-1.98 -233) scale(1 -1)" gradientUnits="userSpaceOnUse">
      <stop offset="0" stop-color="#00ffa3"/>
      <stop offset="1" stop-color="#dc1fff"/>
    </linearGradient>
    <linearGradient id="_Безымянный_градиент_3-2" data-name="Безымянный градиент 3" x1="13.05" y1="-234.48" x2="6.5" y2="-247.03" xlink:href="#_Безымянный_градиент_3"/>
    <linearGradient id="_Безымянный_градиент_3-3" data-name="Безымянный градиент 3" x1="14.47" y1="-235.22" x2="7.92" y2="-247.77" xlink:href="#_Безымянный_градиент_3"/>
  </defs>
  <path class="cls-4" d="M9,0h0c4.97,0,9,4.03,9,9h0c0,4.97-4.03,9-9,9h0C4.03,18,0,13.97,0,9h0C0,4.03,4.03,0,9,0Z"/>
  <path class="cls-2" d="M5.1,11.18c.07-.07.17-.11.27-.11h9.47c.11,0,.19.09.19.19,0,.05-.02.1-.06.14l-1.87,1.87c-.07.07-.17.11-.27.11H3.36c-.11,0-.19-.09-.19-.2,0-.05.02-.1.06-.13l1.87-1.87Z"/>
  <path class="cls-1" d="M5.1,4.2c.07-.07.17-.11.27-.11h9.47c.11,0,.19.09.19.19,0,.05-.02.1-.06.14l-1.87,1.87c-.07.07-.17.11-.27.11H3.36c-.11,0-.19-.09-.19-.2,0-.05.02-.1.06-.13l1.87-1.87Z"/>
  <path class="cls-5" d="M14.59,18c-1.88,0-3.41-1.53-3.41-3.42s1.53-3.42,3.41-3.42,3.41,1.53,3.41,3.42-1.53,3.42-3.41,3.42Z"/>
  <path class="cls-6" d="M15.86,14.58l.52.53.53-.53-.53-.53-.52.53ZM14.59,13.3l-.9.9-.53-.53.9-.9.53-.53.53.53.9.9-.53.53-.9-.9ZM12.79,14.05l.52.53-.53.53-.52-.53.53-.53ZM14.59,15.85l.9-.9.52.53-.9.9-.52.52-.53-.53-.9-.9.53-.52.9.9ZM14.59,15.1l-.53-.53.53-.53.53.53-.53.53Z"/>
  <path class="cls-3" d="M13.1,7.67c-.07-.07-.17-.11-.27-.11H3.36c-.11,0-.19.09-.19.19,0,.05.02.1.06.14l1.87,1.87c.07.07.17.11.27.11h9.47c.11,0,.19-.09.19-.19,0-.05-.02-.1-.06-.14l-1.87-1.87Z"/>
</svg>