<?xml version="1.0" encoding="UTF-8"?><svg id="_Слой_1" xmlns="http://www.w3.org/2000/svg" viewBox="0 0 41 41"><defs><style>.cls-1{fill:#fff;}.cls-2{fill:#53ae94;}.cls-3{fill:#ec0928;}</style></defs><path class="cls-2" d="m20.5,0c11.32,0,20.5,9.18,20.5,20.5s-9.18,20.5-20.5,20.5S0,31.82,0,20.5,9.18,0,20.5,0"/><path class="cls-1" d="m23.03,17.77v-3.05h6.97v-4.65H11.01v4.65h6.97v3.05c-5.67.26-9.93,1.38-9.93,2.73s4.26,2.47,9.93,2.73v9.77h5.04v-9.77c5.66-.26,9.91-1.38,9.91-2.73s-4.25-2.47-9.91-2.73m0,4.63h0c-.14,0-.87.05-2.5.05-1.3,0-2.22-.04-2.54-.05h0c-5.01-.22-8.75-1.09-8.75-2.13s3.74-1.91,8.75-2.14v3.41c.33.02,1.27.08,2.56.08,1.56,0,2.34-.06,2.48-.08v-3.41c5,.22,8.73,1.1,8.73,2.14s-3.73,1.91-8.73,2.14"/><circle class="cls-3" cx="35.01" cy="35.01" r="5.99"/><path class="cls-1" d="m37.23,32.89l-5.29-.95,2.8,6.93,3.86-4.7-1.37-1.28Zm-1.96,1.5l-2.34-1.89,3.76.68-1.42,1.21Zm-.2.32l-.36,3.08-2.02-5,2.38,1.92Zm.37.08l2.47-.38-2.83,3.45.36-3.07Zm2.47-.76l-2.01.31,1.22-1.04.79.73Z"/></svg>