<?xml version="1.0" encoding="UTF-8"?>
<svg id="_Слой_1" data-name="Слой 1" xmlns="http://www.w3.org/2000/svg" xmlns:xlink="http://www.w3.org/1999/xlink" viewBox="0 0 41 41">
  <defs>
    <style>
      .cls-1 {
        fill: none;
      }

      .cls-1, .cls-2, .cls-3, .cls-4 {
        stroke-width: 0px;
      }

      .cls-2 {
        fill: #f0b90b;
      }

      .cls-3 {
        fill: #fff;
      }

      .cls-5 {
        clip-path: url(#clippath);
      }

      .cls-4 {
        fill: #2775ca;
      }
    </style>
    <clipPath id="clippath">
      <rect class="cls-1" width="41" height="41"/>
    </clipPath>
  </defs>
  <g class="cls-5">
    <g>
      <path class="cls-4" d="M20.5,41c11.32,0,20.5-9.18,20.5-20.5S31.82,0,20.5,0,0,9.18,0,20.5s9.18,20.5,20.5,20.5Z"/>
      <path class="cls-3" d="M17.29,33.33c0,.43-.34.67-.75.54-5.53-1.74-9.54-6.87-9.54-12.92s4.01-11.18,9.54-12.92c.42-.13.75.11.75.54v1.05c0,.28-.22.62-.49.71-4.37,1.59-7.51,5.74-7.51,10.62s3.13,9.03,7.51,10.62c.27.1.49.43.49.71v1.06Z"/>
      <path class="cls-3" d="M21.86,29.43c0,.31-.26.57-.57.57h-1.14c-.32,0-.57-.26-.57-.57v-1.79c-2.5-.33-3.71-1.72-4.04-3.6-.06-.32.2-.61.53-.61h1.3c.27,0,.5.19.56.46.24,1.12.9,1.98,2.9,1.98,1.48,0,2.52-.82,2.52-2.04s-.62-1.68-2.78-2.04c-3.2-.43-4.71-1.38-4.71-3.86,0-1.91,1.46-3.4,3.73-3.72v-1.75c0-.31.26-.57.57-.57h1.14c.32,0,.57.26.57.57v1.8c1.84.33,3.01,1.36,3.39,3.08.07.33-.19.63-.52.63h-1.2c-.26,0-.47-.17-.55-.42-.32-1.09-1.11-1.56-2.48-1.56-1.51,0-2.29.72-2.29,1.74,0,1.07.44,1.61,2.77,1.94,3.14.43,4.76,1.31,4.76,3.96,0,2.01-1.51,3.63-3.86,4.01v1.79h0Z"/>
      <path class="cls-3" d="M24.9,33.87c-.42.13-.75-.11-.75-.54v-1.05c0-.31.19-.6.49-.71,4.37-1.59,7.51-5.74,7.51-10.62s-3.13-9.03-7.51-10.61c-.27-.1-.49-.43-.49-.71v-1.05c0-.43.34-.67.75-.54,5.53,1.74,9.54,6.87,9.54,12.92,0,6.03-4.01,11.15-9.54,12.91Z"/>
    </g>
  </g>
  <path class="cls-2" d="M31.95,41c-5,0-9.05-4.07-9.05-9.08s4.05-9.08,9.05-9.08,9.05,4.07,9.05,9.08-4.05,9.08-9.05,9.08Z"/>
  <path class="cls-3" d="M35.32,31.92l1.38,1.4,1.39-1.4-1.39-1.4-1.38,1.4ZM31.95,28.53l-2.38,2.39-1.39-1.4,2.38-2.38,1.39-1.4,1.39,1.4,2.38,2.38-1.39,1.4-2.38-2.39ZM27.19,30.52l1.38,1.4-1.39,1.4-1.38-1.4,1.39-1.4ZM31.95,35.31l2.38-2.39,1.38,1.4-2.38,2.39-1.38,1.39-1.39-1.4-2.38-2.39,1.39-1.39,2.38,2.39ZM31.95,33.32l-1.39-1.4,1.39-1.4,1.39,1.4-1.39,1.4Z"/>
</svg>