<?xml version="1.0" encoding="UTF-8"?>
<svg id="_Слой_1" data-name="Слой 1" xmlns="http://www.w3.org/2000/svg" width="41" height="41" xmlns:xlink="http://www.w3.org/1999/xlink" viewBox="0 0 41 41">
  <defs>
    <style>
      .cls-1 {
        fill: url(#_Безымянный_градиент_2);
      }

      .cls-1, .cls-2, .cls-3, .cls-4 {
        stroke-width: 0px;
      }

      .cls-2 {
        fill: none;
      }

      .cls-3 {
        fill: #fff;
      }

      .cls-5 {
        clip-path: url(#clippath);
      }

      .cls-4 {
        fill: #2775ca;
      }
    </style>
    <clipPath id="clippath">
      <rect class="cls-2" width="41" height="41"/>
    </clipPath>
    <linearGradient id="_Безымянный_градиент_2" data-name="Безымянный градиент 2" x1="25.64" y1="16.36" x2="38.36" y2="3.64" gradientTransform="translate(0 42) scale(1 -1)" gradientUnits="userSpaceOnUse">
      <stop offset="0" stop-color="#8f34c2"/>
      <stop offset="1" stop-color="#7442db"/>
    </linearGradient>
  </defs>
  <g class="cls-5">
    <g>
      <path class="cls-4" d="M20.5,41c11.32,0,20.5-9.18,20.5-20.5S31.82,0,20.5,0,0,9.18,0,20.5s9.18,20.5,20.5,20.5Z"/>
      <path class="cls-3" d="M17.29,33.33c0,.43-.34.67-.75.54-5.53-1.74-9.54-6.87-9.54-12.92s4.01-11.18,9.54-12.92c.42-.13.75.11.75.54v1.05c0,.28-.22.62-.49.71-4.37,1.59-7.51,5.74-7.51,10.62s3.13,9.03,7.51,10.62c.27.1.49.43.49.71v1.06Z"/>
      <path class="cls-3" d="M21.86,29.43c0,.31-.26.57-.57.57h-1.14c-.32,0-.57-.26-.57-.57v-1.79c-2.5-.33-3.71-1.72-4.04-3.6-.06-.32.2-.61.53-.61h1.3c.27,0,.5.19.56.46.24,1.12.9,1.98,2.9,1.98,1.48,0,2.52-.82,2.52-2.04s-.62-1.68-2.78-2.04c-3.2-.43-4.71-1.38-4.71-3.86,0-1.91,1.46-3.4,3.73-3.72v-1.75c0-.31.26-.57.57-.57h1.14c.32,0,.57.26.57.57v1.8c1.84.33,3.01,1.36,3.39,3.08.07.33-.19.63-.52.63h-1.2c-.26,0-.47-.17-.55-.42-.32-1.09-1.11-1.56-2.48-1.56-1.51,0-2.29.72-2.29,1.74,0,1.07.44,1.61,2.77,1.94,3.14.43,4.76,1.31,4.76,3.96,0,2.01-1.51,3.63-3.86,4.01v1.79h0Z"/>
      <path class="cls-3" d="M24.9,33.87c-.42.13-.75-.11-.75-.54v-1.05c0-.31.19-.6.49-.71,4.37-1.59,7.51-5.74,7.51-10.62s-3.13-9.03-7.51-10.61c-.27-.1-.49-.43-.49-.71v-1.05c0-.43.34-.67.75-.54,5.53,1.74,9.54,6.87,9.54,12.92,0,6.03-4.01,11.15-9.54,12.91Z"/>
    </g>
  </g>
  <path class="cls-1" d="M32,23h0c4.97,0,9,4.03,9,9h0c0,4.97-4.03,9-9,9h0c-4.97,0-9-4.03-9-9h0c0-4.97,4.03-9,9-9Z"/>
  <path class="cls-3" d="M28.74,30.05c.23-.12.52-.12.75,0l5.05,2.87c.22.12.5.12.75,0l1.16-.76c.22-.13.55-.36.55-.62v-2.08c0-.26-.13-.49-.36-.61l-1.34-.75c-.23-.12-.52-.12-.75,0l-1.2.74c-.21.13-.34.35-.34.6v1.28l-1-.65v-.97c0-.25.07-.48.3-.61l2.22-1.4c.23-.12.52-.12.75,0l2.35,1.4c.25.13.38.36.38.61v2.82c0,.25-.13.48-.38.6l-2.33,1.4c-.23.12-.52.12-.75,0l-5.06-2.82c-.23-.12-.52-.12-.75,0l-1.15.74c-.22.12-.59.36-.59.6v2.1c0,.25.14.48.39.6l1.35.77c.22.12.5.12.75,0l1.13-.76c.23-.11.37-.35.38-.6v-1.28l1,.65v.98c0,.25-.04.48-.28.6l-2.25,1.4c-.23.12-.52.12-.75,0l-2.34-1.4c-.22-.12-.37-.35-.38-.6v-2.82c0-.25.13-.48.38-.6,0,0,2.36-1.43,2.36-1.43Z"/>
</svg>